USFL
nRows=107
nColumns=2
inDegrees=yes
endheader
time	soleus_r	
3.57863	 67.479500	
3.6502	 67.547435	
3.72177	 67.344683	
3.79335	 67.424056	
3.86492	 67.611415	
3.93649	 67.748156	
4.00806	 67.757101	
4.07964	 67.368505	
4.15121	 67.121462	
4.22278	 67.117584	
4.29435	 67.253780	
4.36593	 67.281231	
4.4375	 67.223626	
4.50907	 67.672474	
4.58065	 67.752102	
4.65222	 67.779883	
4.72379	 67.480280	
4.79536	 67.592047	
4.86694	 67.657621	
4.93851	 67.624707	
5.01008	 67.500030	
5.08165	 67.509461	
5.15323	 67.637657	
5.2248	 67.681583	
5.29637	 67.716314	
5.36794	 67.675195	
5.43952	 67.637756	
5.51109	 67.860182	
5.58266	 67.911001	
5.65423	 67.910967	
5.72581	 67.819545	
5.79738	 68.033342	
5.86895	 67.853318	
5.94052	 67.998915	
6.0121	 67.938563	
6.08367	 52.994079	
6.15524	 52.396555	
6.22681	 44.506668	
6.29839	 44.193867	
6.36996	 44.277427	
6.44153	 42.473071	
6.5131	 41.321536	
6.58468	 37.753453	
6.65625	 37.301384	
6.72782	 37.149741	
6.7994	 37.136302	
6.87097	 37.684727	
6.94254	 37.821459	
7.01411	 37.863879	
7.08569	 37.294495	
7.15726	 37.727317	
7.22883	 37.713000	
7.3004	 37.526432	
7.37198	 38.079750	
7.44355	 37.847429	
7.51512	 37.697576	
7.58669	 37.816458	
7.65827	 37.712924	
7.72984	 37.747667	
7.80141	 37.350320	
7.87298	 37.476297	
7.94456	 37.217429	
8.01613	 36.909317	
8.0877	 37.067299	
8.15927	 37.048469	
8.23085	 36.981975	
8.30242	 37.074029	
8.37399	 37.094497	
8.44556	 36.929971	
8.51714	 37.057537	
8.58871	 37.188703	
8.66028	 37.297083	
8.73185	 37.212768	
8.80343	 36.992848	
8.875	 37.016727	
8.94657	 37.176303	
9.01815	 36.981509	
9.08972	 36.818125	
9.16129	 36.901229	
9.23286	 36.932791	
9.30444	 36.930272	
9.37601	 37.338527	
9.44758	 37.077852	
9.51915	 37.139585	
9.59073	 37.282322	
9.6623	 36.960555	
9.73387	 37.142460	
9.80544	 37.202543	
9.87702	 37.259570	
9.94859	 37.178636	
10.0202	 37.162482	
10.0917	 37.129166	
10.1633	 37.116152	
10.2349	 37.126201	
10.3065	 37.215898	
10.378	 37.251053	
10.4496	 37.241220	
10.5212	 37.377524	
10.5927	 37.153108	
10.6643	 37.101246	
10.7359	 36.636083	
10.8075	 37.120494	
10.879	 37.020163	
10.9506	 39.980911	
11.0222	 40.097740	
11.0937	 42.497293	
11.1653	 42.435080	
